<?xml version="1.0"?><svg fill="#000000" xmlns="http://www.w3.org/2000/svg"  viewBox="0 0 64 64" width="64px" height="64px">    <path d="M 48.738281 12.978516 C 47.943281 12.978516 47.180187 13.294422 46.617188 13.857422 L 44.617188 15.857422 L 42.255859 15.857422 C 41.725859 15.857422 41.216797 16.068359 40.841797 16.443359 L 39.822266 17.462891 L 39.822266 17.457031 C 39.822266 16.573031 39.106656 15.857422 38.222656 15.857422 L 36.945312 15.857422 L 36.945312 14.980469 C 36.945312 13.875469 36.050312 12.980469 34.945312 12.980469 L 28.0625 12.980469 C 26.9575 12.980469 26.0625 13.875469 26.0625 14.980469 L 26.0625 15.857422 L 12.966797 15.857422 L 10.947266 13.851562 C 10.384266 13.292563 9.6240313 12.980469 8.8320312 12.980469 L 6.0019531 12.980469 C 4.8969531 12.980469 4.0019531 13.875469 4.0019531 14.980469 L 4.0019531 24.953125 C 4.0019531 25.483125 4.2138906 25.992188 4.5878906 26.367188 L 6.7050781 28.484375 C 6.8340781 28.585375 6.9608438 28.684156 7.0898438 28.785156 L 11.199219 31.251953 C 11.510219 31.437953 11.866516 31.537109 12.228516 31.537109 L 15.330078 31.537109 C 15.604078 31.535109 15.826172 31.311109 15.826172 31.037109 L 15.826172 30.890625 L 17.072266 31.390625 C 17.309266 31.485625 17.562359 31.535156 17.818359 31.535156 L 24.261719 31.535156 C 24.843719 31.535156 25.395391 31.282797 25.775391 30.841797 L 26.560547 29.929688 L 26.570312 30.011719 C 26.670313 30.880719 27.405297 31.535156 28.279297 31.535156 L 30.212891 31.535156 C 31.116891 31.535156 31.865734 30.835594 31.927734 29.933594 L 31.927734 29.929688 L 33.052734 30.925781 L 33.052734 39.779297 C 33.052734 39.952297 33.195187 40.09375 33.367188 40.09375 L 36.263672 40.09375 C 36.429672 40.07575 36.577703 39.945719 36.595703 39.761719 L 36.890625 38.175781 L 37.185547 38.175781 C 37.886547 38.175781 38.549078 37.825906 38.955078 37.253906 C 38.955078 37.253906 38.790906 37.751969 38.753906 37.917969 C 38.716906 38.009969 38.753703 38.121203 38.845703 38.158203 C 38.882703 38.176203 38.9005 38.175781 38.9375 38.175781 L 41.703125 38.175781 C 41.887125 38.212781 42.054797 38.083969 42.091797 37.917969 L 42.330078 37.253906 C 42.330078 37.253906 42.441094 37.751969 42.496094 37.917969 C 42.514094 38.083969 42.662125 38.193781 42.828125 38.175781 L 53.121094 38.175781 C 53.583094 38.175781 53.619578 38.065969 53.767578 37.917969 L 53.822266 37.863281 C 54.264266 38.065281 54.725078 38.175891 55.205078 38.212891 C 58.322078 38.378891 59.577812 37.032828 59.632812 36.423828 C 59.651812 36.275828 60.03925 33.98825 59.78125 32.53125 C 59.59625 31.46125 58.582656 30.429687 56.847656 30.429688 L 59.109375 28.921875 C 59.667375 28.549875 60.001 27.923906 60 27.253906 L 59.984375 19.560547 C 59.983375 19.031547 59.772437 18.524391 59.398438 18.150391 L 57.691406 16.441406 C 57.316406 16.066406 56.807344 15.855469 56.277344 15.855469 L 53.582031 15.855469 L 53.582031 14.978516 C 53.582031 13.873516 52.687031 12.978516 51.582031 12.978516 L 48.738281 12.978516 z M 6.2929688 14.251953 L 7.7988281 14.251953 C 8.3508281 14.251953 8.7988281 14.699953 8.7988281 15.251953 L 8.7988281 17.130859 L 10.693359 17.130859 C 11.245359 17.130859 11.693359 17.578859 11.693359 18.130859 L 11.693359 19.652344 C 11.693359 20.204344 11.245359 20.652344 10.693359 20.652344 L 8.7988281 20.652344 L 8.7988281 23.861328 L 10.693359 23.861328 C 11.245359 23.861328 11.693359 24.309328 11.693359 24.861328 L 11.693359 26.367188 C 11.693359 26.919187 11.245359 27.367188 10.693359 27.367188 L 7.9394531 27.367188 C 7.6744531 27.367188 7.4204219 27.262219 7.2324219 27.074219 L 5.5859375 25.427734 C 5.3979375 25.240734 5.2929688 24.985703 5.2929688 24.720703 L 5.2929688 15.251953 C 5.2929688 14.699953 5.7409688 14.251953 6.2929688 14.251953 z M 33.148438 14.251953 L 34.671875 14.251953 C 35.223875 14.251953 35.671875 14.699953 35.671875 15.251953 L 35.671875 17.130859 L 37.550781 17.130859 C 38.102781 17.130859 38.550781 17.578859 38.550781 18.130859 L 38.550781 19.652344 C 38.550781 20.204344 38.102781 20.652344 37.550781 20.652344 L 35.671875 20.652344 L 35.671875 23.861328 L 37.550781 23.861328 C 38.102781 23.861328 38.550781 24.309328 38.550781 24.861328 L 38.550781 26.367188 C 38.550781 26.919187 38.102781 27.367188 37.550781 27.367188 L 37.550781 27.365234 L 34.810547 27.365234 C 34.546547 27.365234 34.294422 27.262172 34.107422 27.076172 L 32.445312 25.427734 C 32.255313 25.239734 32.148438 24.98575 32.148438 24.71875 L 32.148438 15.251953 C 32.148438 14.699953 32.596438 14.251953 33.148438 14.251953 z M 49.787109 14.251953 L 51.310547 14.251953 C 51.862547 14.251953 52.310547 14.699953 52.310547 15.251953 L 52.310547 17.128906 L 56.046875 17.128906 C 56.311875 17.128906 56.565906 17.233875 56.753906 17.421875 L 58.417969 19.087891 C 58.605969 19.274891 58.710938 19.529922 58.710938 19.794922 L 58.710938 26.367188 C 58.710938 26.919187 58.262937 27.367188 57.710938 27.367188 L 56.1875 27.367188 C 55.6355 27.367188 55.1875 26.919187 55.1875 26.367188 L 55.1875 20.652344 L 52.310547 20.652344 L 52.310547 26.367188 C 52.310547 26.919187 51.862547 27.367188 51.310547 27.367188 L 49.787109 27.367188 C 49.235109 27.367188 48.787109 26.919234 48.787109 26.365234 L 48.787109 15.251953 C 48.787109 14.699953 49.235109 14.251953 49.787109 14.251953 z M 28.154297 14.253906 L 30.076172 14.253906 C 30.518172 14.253906 30.876953 14.610734 30.876953 15.052734 L 30.876953 15.058594 C 30.876953 15.500594 30.518172 15.857422 30.076172 15.857422 L 28.154297 15.857422 C 27.712297 15.857422 27.353516 15.500594 27.353516 15.058594 L 27.353516 15.052734 C 27.353516 14.610734 27.712297 14.253906 28.154297 14.253906 z M 13.966797 17.130859 L 15.488281 17.130859 C 16.040281 17.130859 16.488281 17.578859 16.488281 18.130859 L 16.488281 23.863281 L 17.761719 23.863281 L 17.761719 18.130859 C 17.761719 17.578859 18.209719 17.130859 18.761719 17.130859 L 20.285156 17.130859 C 20.837156 17.130859 21.285156 17.578859 21.285156 18.130859 L 21.285156 23.863281 L 22.558594 23.863281 L 22.558594 18.130859 C 22.558594 17.578859 23.006594 17.130859 23.558594 17.130859 L 25.080078 17.130859 C 25.632078 17.130859 26.080078 17.578859 26.080078 18.130859 L 26.080078 24.720703 C 26.080078 24.985703 25.975109 25.239734 25.787109 25.427734 L 24.142578 27.074219 C 23.955578 27.262219 23.700547 27.367188 23.435547 27.367188 L 13.966797 27.367188 C 13.414797 27.367188 12.966797 26.919187 12.966797 26.367188 L 12.966797 18.130859 C 12.966797 17.578859 13.414797 17.130859 13.966797 17.130859 z M 28.353516 17.130859 L 29.876953 17.130859 C 30.428953 17.130859 30.876953 17.578859 30.876953 18.130859 L 30.876953 26.367188 C 30.876953 26.919187 30.428953 27.367188 29.876953 27.367188 L 28.353516 27.367188 C 27.801516 27.367188 27.353516 26.919187 27.353516 26.367188 L 27.353516 18.130859 C 27.353516 17.578859 27.801516 17.130859 28.353516 17.130859 z M 42.488281 17.130859 L 46.513672 17.130859 C 47.065672 17.130859 47.513672 17.578859 47.513672 18.130859 L 47.513672 19.652344 C 47.513672 20.204344 47.065672 20.652344 46.513672 20.652344 L 43.345703 20.652344 L 43.345703 23.861328 L 46.513672 23.861328 C 47.065672 23.861328 47.513672 24.309328 47.513672 24.861328 L 47.513672 26.367188 C 47.513672 26.919187 47.065672 27.367188 46.513672 27.367188 L 42.486328 27.367188 C 42.221328 27.367188 41.967297 27.262219 41.779297 27.074219 L 40.134766 25.427734 C 39.946766 25.240734 39.841797 24.985703 39.841797 24.720703 L 39.841797 19.792969 C 39.841797 19.528969 39.944859 19.274891 40.130859 19.087891 L 41.779297 17.425781 C 41.967297 17.236781 42.221281 17.130859 42.488281 17.130859 z M 44.507812 29.025391 C 44.710812 29.025391 44.914078 29.08975 45.080078 29.21875 C 45.375078 29.51375 45.375078 29.992109 45.080078 30.287109 C 44.932078 30.416109 44.710813 30.490234 44.507812 30.490234 C 44.304812 30.508234 44.101547 30.435109 43.935547 30.287109 C 43.640547 29.992109 43.640547 29.51375 43.935547 29.21875 C 44.101547 29.08975 44.304813 29.025391 44.507812 29.025391 z M 37.167969 31.0625 C 37.720969 31.0445 38.272469 31.284609 38.605469 31.724609 C 38.956469 32.167609 39.140625 32.77525 39.140625 33.53125 C 39.159625 33.99225 39.066813 34.472484 38.882812 34.896484 C 38.735813 35.247484 38.478063 35.560781 38.164062 35.800781 C 37.869062 36.003781 37.499859 36.115234 37.130859 36.115234 C 36.872859 36.115234 36.632578 36.078328 36.392578 35.986328 C 36.171578 35.912328 35.968734 35.802297 35.802734 35.654297 L 35.802734 37.720703 C 35.820734 37.831703 35.765297 37.923938 35.654297 37.960938 L 35.5625 37.960938 L 34.658203 37.978516 C 34.585203 37.978516 34.529609 37.960828 34.474609 37.923828 C 34.437609 37.868828 34.419922 37.812281 34.419922 37.738281 L 34.419922 31.46875 C 34.419922 31.39575 34.437609 31.338203 34.474609 31.283203 C 34.529609 31.246203 34.584203 31.228516 34.658203 31.228516 L 35.341797 31.228516 C 35.470797 31.210516 35.581609 31.302641 35.599609 31.431641 L 35.673828 31.671875 C 35.875828 31.486875 36.096469 31.339516 36.355469 31.228516 C 36.614469 31.117516 36.890969 31.0625 37.167969 31.0625 z M 56.978516 31.0625 C 57.568516 31.0625 58.01175 31.209328 58.34375 31.486328 C 58.67575 31.763328 58.859797 32.187328 58.841797 32.611328 C 58.859797 33.035328 58.656641 33.441641 58.306641 33.681641 C 57.955641 33.921641 57.420281 34.050781 56.738281 34.050781 C 56.425281 34.050781 56.111406 34.013453 55.816406 33.939453 C 55.853406 34.363453 55.982125 34.65975 56.203125 34.84375 C 56.499125 35.04675 56.831641 35.139094 57.181641 35.121094 C 57.347641 35.121094 57.531266 35.101984 57.697266 35.083984 C 57.937266 35.046984 58.158437 34.990547 58.398438 34.935547 L 58.453125 34.917969 L 58.507812 34.917969 C 58.618812 34.917969 58.673828 34.992672 58.673828 35.138672 L 58.673828 35.580078 C 58.673828 35.654078 58.673719 35.728203 58.636719 35.783203 C 58.599719 35.839203 58.544703 35.876531 58.470703 35.894531 C 57.954703 36.097531 57.456984 36.189875 56.958984 36.171875 C 56.184984 36.171875 55.575922 35.949391 55.169922 35.525391 C 54.763922 35.101391 54.542969 34.493641 54.542969 33.681641 C 54.542969 32.870641 54.765453 32.224672 55.189453 31.763672 C 55.613453 31.302672 56.203516 31.0625 56.978516 31.0625 z M 49.341797 31.099609 C 49.913797 31.099609 50.299063 31.302984 50.539062 31.708984 C 50.816063 31.524984 51.129359 31.359047 51.443359 31.248047 C 51.719359 31.155047 52.014125 31.099609 52.328125 31.099609 C 52.697125 31.080609 53.06775 31.210703 53.34375 31.470703 C 53.60175 31.747703 53.730891 32.116906 53.712891 32.503906 L 53.712891 35.824219 C 53.712891 35.897219 53.69325 35.952813 53.65625 36.007812 C 53.60125 36.044812 53.546656 36.0625 53.472656 36.0625 L 52.568359 36.0625 C 52.457359 36.0805 52.346125 36.007484 52.328125 35.896484 L 52.328125 35.822266 L 52.328125 32.798828 C 52.328125 32.373828 52.144813 32.152344 51.757812 32.152344 C 51.406813 32.152344 51.056609 32.244578 50.724609 32.392578 L 50.724609 35.804688 C 50.724609 35.878687 50.706922 35.933281 50.669922 35.988281 C 50.614922 36.025281 50.558375 36.062922 50.484375 36.044922 L 49.580078 36.044922 C 49.469078 36.062922 49.359797 35.989906 49.341797 35.878906 L 49.341797 35.804688 L 49.341797 32.779297 C 49.341797 32.354297 49.156531 32.132812 48.769531 32.132812 C 48.400531 32.132812 48.050328 32.224625 47.736328 32.390625 L 47.736328 35.802734 C 47.736328 35.876734 47.718641 35.933281 47.681641 35.988281 C 47.626641 36.025281 47.570094 36.042969 47.496094 36.042969 L 46.59375 36.042969 C 46.48275 36.060969 46.371516 35.987953 46.353516 35.876953 L 46.353516 35.802734 L 46.353516 31.46875 C 46.353516 31.39575 46.371203 31.338203 46.408203 31.283203 C 46.463203 31.246203 46.517797 31.228516 46.591797 31.228516 L 47.275391 31.228516 C 47.404391 31.210516 47.515203 31.302641 47.533203 31.431641 L 47.607422 31.689453 C 47.884422 31.505453 48.197719 31.339516 48.511719 31.228516 C 48.769719 31.136516 49.046797 31.099609 49.341797 31.099609 z M 42.810547 31.191406 L 42.939453 31.191406 C 43.013453 31.191406 43.068047 31.210047 43.123047 31.248047 C 43.160047 31.303047 43.197687 31.359594 43.179688 31.433594 L 43.179688 32.226562 C 43.179688 32.299563 43.160047 32.355156 43.123047 32.410156 C 43.068047 32.447156 43.013453 32.482844 42.939453 32.464844 L 42.773438 32.464844 C 42.699438 32.464844 42.607625 32.446844 42.515625 32.464844 C 42.330625 32.464844 42.164469 32.482531 41.980469 32.519531 C 41.795469 32.556531 41.629312 32.612969 41.445312 32.667969 L 41.445312 35.804688 C 41.445312 35.877688 41.427625 35.933281 41.390625 35.988281 C 41.335625 36.025281 41.281031 36.042969 41.207031 36.042969 L 40.302734 36.042969 C 40.191734 36.060969 40.0805 35.987953 40.0625 35.876953 L 40.0625 35.802734 L 40.0625 31.46875 C 40.0625 31.39575 40.080188 31.338203 40.117188 31.283203 C 40.172187 31.246203 40.228734 31.228516 40.302734 31.228516 L 40.986328 31.228516 C 41.115328 31.210516 41.226141 31.302641 41.244141 31.431641 L 41.373047 31.947266 C 41.576047 31.707266 41.814797 31.505422 42.091797 31.357422 C 42.312797 31.246422 42.552547 31.191406 42.810547 31.191406 z M 44.046875 31.228516 L 44.951172 31.228516 C 45.061172 31.210516 45.153406 31.266953 45.191406 31.376953 L 45.191406 31.46875 L 45.191406 35.802734 C 45.191406 35.876734 45.173719 35.933281 45.136719 35.988281 C 45.081719 36.025281 45.025172 36.060969 44.951172 36.042969 L 44.048828 36.042969 C 43.937828 36.060969 43.826594 35.987953 43.808594 35.876953 L 43.808594 35.802734 L 43.808594 31.46875 C 43.808594 31.39575 43.826281 31.338203 43.863281 31.283203 C 43.918281 31.246203 43.972875 31.228516 44.046875 31.228516 z M 56.865234 32.041016 C 56.257234 32.041016 55.906453 32.409438 55.814453 33.148438 C 56.091453 33.204437 56.367531 33.222656 56.644531 33.222656 C 56.884531 33.240656 57.124703 33.185219 57.345703 33.074219 C 57.492703 32.981219 57.566406 32.796859 57.566406 32.630859 C 57.566406 32.243859 57.326234 32.041016 56.865234 32.041016 z M 36.742188 32.132812 C 36.410187 32.132812 36.097312 32.224625 35.820312 32.390625 L 35.820312 34.861328 C 36.078313 35.027328 36.392609 35.101563 36.724609 35.101562 C 37.019609 35.120562 37.314047 34.991953 37.498047 34.751953 C 37.664047 34.511953 37.757813 34.143953 37.757812 33.626953 C 37.757812 33.109953 37.683578 32.722422 37.517578 32.482422 C 37.332578 32.243422 37.037188 32.095813 36.742188 32.132812 z M 7.0019531 47.019531 C 6.4499531 47.019531 6.0019531 47.467531 6.0019531 48.019531 L 6.0019531 50.019531 C 6.0019531 50.571531 6.4499531 51.019531 7.0019531 51.019531 C 7.5539531 51.019531 8.0019531 50.571531 8.0019531 50.019531 L 8.0019531 48.019531 C 8.0019531 47.467531 7.5539531 47.019531 7.0019531 47.019531 z M 12.001953 47.019531 C 11.449953 47.019531 11.001953 47.467531 11.001953 48.019531 L 11.001953 50.019531 C 11.001953 50.571531 11.449953 51.019531 12.001953 51.019531 C 12.553953 51.019531 13.001953 50.571531 13.001953 50.019531 L 13.001953 48.019531 C 13.001953 47.467531 12.553953 47.019531 12.001953 47.019531 z M 17.001953 47.019531 C 16.449953 47.019531 16.001953 47.467531 16.001953 48.019531 L 16.001953 50.019531 C 16.001953 50.571531 16.449953 51.019531 17.001953 51.019531 C 17.553953 51.019531 18.001953 50.571531 18.001953 50.019531 L 18.001953 48.019531 C 18.001953 47.467531 17.553953 47.019531 17.001953 47.019531 z M 22.001953 47.019531 C 21.449953 47.019531 21.001953 47.467531 21.001953 48.019531 L 21.001953 50.019531 C 21.001953 50.571531 21.449953 51.019531 22.001953 51.019531 C 22.553953 51.019531 23.001953 50.571531 23.001953 50.019531 L 23.001953 48.019531 C 23.001953 47.467531 22.553953 47.019531 22.001953 47.019531 z M 27.001953 47.019531 C 26.449953 47.019531 26.001953 47.467531 26.001953 48.019531 L 26.001953 50.019531 C 26.001953 50.571531 26.449953 51.019531 27.001953 51.019531 C 27.553953 51.019531 28.001953 50.571531 28.001953 50.019531 L 28.001953 48.019531 C 28.001953 47.467531 27.553953 47.019531 27.001953 47.019531 z M 32.001953 47.019531 C 31.449953 47.019531 31.001953 47.467531 31.001953 48.019531 L 31.001953 50.019531 C 31.001953 50.571531 31.449953 51.019531 32.001953 51.019531 C 32.553953 51.019531 33.001953 50.571531 33.001953 50.019531 L 33.001953 48.019531 C 33.001953 47.467531 32.553953 47.019531 32.001953 47.019531 z M 37.001953 47.019531 C 36.449953 47.019531 36.001953 47.467531 36.001953 48.019531 L 36.001953 50.019531 C 36.001953 50.571531 36.449953 51.019531 37.001953 51.019531 C 37.553953 51.019531 38.001953 50.571531 38.001953 50.019531 L 38.001953 48.019531 C 38.001953 47.467531 37.553953 47.019531 37.001953 47.019531 z M 42.001953 47.019531 C 41.449953 47.019531 41.001953 47.467531 41.001953 48.019531 L 41.001953 50.019531 C 41.001953 50.571531 41.449953 51.019531 42.001953 51.019531 C 42.553953 51.019531 43.001953 50.571531 43.001953 50.019531 L 43.001953 48.019531 C 43.001953 47.467531 42.553953 47.019531 42.001953 47.019531 z M 47.001953 47.019531 C 46.449953 47.019531 46.001953 47.467531 46.001953 48.019531 L 46.001953 50.019531 C 46.001953 50.571531 46.449953 51.019531 47.001953 51.019531 C 47.553953 51.019531 48.001953 50.571531 48.001953 50.019531 L 48.001953 48.019531 C 48.001953 47.467531 47.553953 47.019531 47.001953 47.019531 z M 52.001953 47.019531 C 51.449953 47.019531 51.001953 47.467531 51.001953 48.019531 L 51.001953 50.019531 C 51.001953 50.571531 51.449953 51.019531 52.001953 51.019531 C 52.553953 51.019531 53.001953 50.571531 53.001953 50.019531 L 53.001953 48.019531 C 53.001953 47.467531 52.553953 47.019531 52.001953 47.019531 z M 57.001953 47.019531 C 56.449953 47.019531 56.001953 47.467531 56.001953 48.019531 L 56.001953 50.019531 C 56.001953 50.571531 56.449953 51.019531 57.001953 51.019531 C 57.553953 51.019531 58.001953 50.571531 58.001953 50.019531 L 58.001953 48.019531 C 58.001953 47.467531 57.553953 47.019531 57.001953 47.019531 z"/></svg>